<svg xmlns="http://www.w3.org/2000/svg" fill="none" viewBox="0 0 48 48">
  <path fill-rule="evenodd" clip-rule="evenodd" d="M23.706 11.044a.999.999 0 01.588 0l13 4A1 1 0 0138 16v1h1a5 5 0 015 5v4a5 5 0 01-5 5h-2.456a8.99 8.99 0 01-4.897 3.693l-7.353 2.263a1.001 1.001 0 01-.588 0l-7.353-2.263A8.99 8.99 0 0111.456 31H9a5 5 0 01-5-5v-4a5 5 0 015-5h1v-1a1 1 0 01.706-.956l13-4zM10 26.091c0 1.01.168 1.99.482 2.909H9a3 3 0 01-3-3v-4a3 3 0 013-3h1v7.091zM37.518 29H39a3 3 0 003-3v-4a3 3 0 00-3-3h-1v7.091c0 1.01-.168 1.99-.482 2.909zM25 16v16h-2V16h2zm8 10a2 2 0 11-4 0 2 2 0 014 0z" fill="#333"/>
</svg>
