<svg xmlns="http://www.w3.org/2000/svg" version="1.1" x="0" y="0" viewBox="0 0 256 256" xml:space="preserve">
  <path d="M119.6 136.9H96.7V132l10.8-12.5c1.5-1.8 2.6-3.3 3.3-4.6.7-1.3 1.1-2.6 1.1-3.7 0-1.6-.4-2.9-1.1-3.8s-1.8-1.4-3.2-1.4c-1.5 0-2.7.6-3.5 1.7-.9 1.1-1.3 2.6-1.3 4.4H96c0-2.2.5-4.2 1.5-6.1 1-1.8 2.3-3.3 4.1-4.3 1.8-1 3.8-1.6 6-1.6 3.4 0 6.1.9 8 2.7 1.9 1.8 2.9 4.3 2.9 7.6 0 1.8-.4 3.6-1.3 5.5s-2.3 4-4.4 6.5l-7.6 8.7h14.3v5.8zm10.5-27l.2 3c1.8-2.3 4.1-3.5 7.1-3.5 3.2 0 5.4 1.4 6.6 4.1 1.7-2.7 4.2-4.1 7.4-4.1 2.7 0 4.7.9 6 2.6 1.3 1.7 2 4.3 2 7.7V137h-6.6v-17.3c0-1.5-.3-2.7-.8-3.4s-1.5-1.1-2.9-1.1c-2 0-3.4 1-4.1 3.1v18.6h-6.6v-17.3c0-1.6-.3-2.7-.8-3.4s-1.5-1.1-2.9-1.1c-1.9 0-3.2.9-4.1 2.6v19.2H124v-27h6.1zm74.7-83.4c0-14.1 11.4-25.4 25.4-25.4 14.1 0 25.4 11.4 25.4 25.4s-11.4 25.4-25.4 25.4c-14 0-25.4-11.4-25.4-25.4zM217.5 256H249l.2-71.7c-1.6.4-3.2.6-4.8.6-5.7 0-10.5-2.4-13.7-6.2-2.2-3.2-3.8-7-3.8-11.1V96.3c0-2 1.3-3.2 3.2-3.2 2 0 3.2 1.3 3.2 3.2v71.5c0 6 5.1 11.1 11.1 11.1s11.1-5.1 11.1-11.1V72.7c0-8.1-6.4-14.3-14.3-14.3-.6 0-3.2.2-3.2.2-19.9 3.4-35.3 20.8-35.2 42.2 0 .4-.2 3.5 0 4.8 0 18.5 14.7 150.4 14.7 150.4zM53.4 100.8c0 .4.2 3.5 0 4.8 0 18.6-14.7 150.4-14.7 150.4H7.2L7 184.3c1.6.4 3.2.6 4.8.6 5.7 0 10.5-2.4 13.7-6.2 2.2-3.2 3.8-7 3.8-11.1V96.3c0-2-1.3-3.2-3.2-3.2-2 0-3.2 1.3-3.2 3.2v71.5c0 6-5.1 11.1-11.1 11.1S.7 173.8.7 167.8V72.7C.7 64.6 7 58.4 15 58.4c.6 0 3.2.2 3.2.2 19.9 3.4 35.3 20.8 35.2 42.2zM25.9 51.9c14.1 0 25.4-11.4 25.4-25.4S40 1 25.9 1 .5 12.4.5 26.5s11.4 25.4 25.4 25.4zm170.8 128.6l-37-21.3v14.2H96.3v-14.2l-37 21.3 37 21.3v-14.2h63.5v14.2l36.9-21.3z"/>
</svg>
