<svg xmlns="http://www.w3.org/2000/svg" version="1.1" x="0" y="0" viewBox="0 0 256 256" xml:space="preserve">
  <path d="M204.7 26c0-14.1 11.4-25.5 25.5-25.5s25.5 11.4 25.5 25.5-11.4 25.5-25.5 25.5-25.5-11.4-25.5-25.5zm5.6 230h38.6l.2-71.9c-1.6.4-3.2.6-4.8.6-5.8 0-10.5-2.4-13.7-6.2-2.2-3.2-3.8-7-3.8-11.1V95.9c0-2 1.3-3.2 3.2-3.2 2 0 3.2 1.3 3.2 3.2v71.7c0 6 5.1 11.1 11.1 11.1s11.1-5.1 11.1-11.1V72.3c0-8.1-6.4-14.3-14.3-14.3-.6 0-3.2.2-3.2.2-20 3.4-35.4 28.8-35.3 50.3 0 .4-.2 3.6 0 4.8 0 18.6 7.7 142.7 7.7 142.7zM52.9 108.5c0 .4.2 3.6 0 4.8 0 18.6-7.7 142.7-7.7 142.7H6.6l-.2-71.9c1.6.4 3.2.6 4.8.6 5.8 0 10.5-2.4 13.7-6.2 2.2-3.2 3.8-7 3.8-11.1V95.9c0-2-1.3-3.2-3.2-3.2-2 0-3.2 1.3-3.2 3.2v71.7c0 6-5.1 11.1-11.1 11.1S.1 173.6.1 167.6V72.3C.1 64.2 6.5 58 14.4 58c.6 0 3.2.2 3.2.2 20 3.4 35.4 28.8 35.3 50.3zm-27.5-57c14.1 0 25.5-11.4 25.5-25.5S39.5.5 25.4.5-.1 11.9-.1 26s11.4 25.5 25.5 25.5zm171.2 120.8l-37-21.4v14.2H95.9v-14.2l-37 21.4 37 21.4v-14.2h63.6v14.2l37.1-21.4zM71.9 228.8c-7.2 0-13 5.8-13 13s5.8 13 13 13 13-5.8 13-13c.1-7.1-5.8-13-13-13zm37.2 0c-7.2 0-13 5.8-13 13s5.8 13 13 13 13-5.8 13-13c.1-7.1-5.8-13-13-13zm37.2 0c-7.2 0-13 5.8-13 13s5.8 13 13 13 13-5.8 13-13c.1-7.1-5.8-13-13-13zm37.2 0c-7.2 0-13 5.8-13 13s5.8 13 13 13 13-5.8 13-13c.1-7.1-5.8-13-13-13z"/>
</svg>
