<svg xmlns="http://www.w3.org/2000/svg" fill="none" viewBox="0 0 48 48">
  <path d="M12 29c2.21 0 4-1.79 4-4s-1.79-4-4-4-4 1.79-4 4 1.79 4 4 4z" fill="#333"/>
  <path d="M9.23 29.017c.196-.068.397.072.485.33l1.58 1.657h1.41l1.58-1.657c.088-.258.289-.398.484-.33 2.102.734 4.231 2.23 4.231 4.48v1.19c0 .725-.588 1.313-1.313 1.313H6.313A1.312 1.312 0 015 34.687v-1.19c0-2.25 2.129-3.746 4.23-4.48zM36 29c2.21 0 4-1.79 4-4s-1.79-4-4-4-4 1.79-4 4 1.79 4 4 4z" fill="#333"/>
  <path d="M33.23 29.017c.196-.068.397.072.485.33l1.58 1.657h1.41l1.58-1.657c.088-.258.289-.398.484-.33 2.102.734 4.231 2.23 4.231 4.48v1.19c0 .725-.588 1.313-1.313 1.313H30.313A1.312 1.312 0 0129 34.687v-1.19c0-2.25 2.129-3.746 4.23-4.48z" fill="#333"/>
  <path fill-rule="evenodd" clip-rule="evenodd" d="M39 15H9v-2h30v2z" fill="#333"/>
  <path fill-rule="evenodd" clip-rule="evenodd" d="M11.707 10.293a1 1 0 010 1.414l-2.121 2.121 2.121 2.122a1 1 0 01-1.414 1.414l-2.121-2.121a2 2 0 010-2.829l2.121-2.121a1 1 0 011.414 0zm24.586 7.414a1 1 0 010-1.414l2.121-2.121-2.121-2.122a1 1 0 111.414-1.414l2.121 2.121a2 2 0 010 2.829l-2.12 2.121a1 1 0 01-1.415 0z" fill="#333"/>
</svg>
