<svg xmlns="http://www.w3.org/2000/svg" fill="none" viewBox="0 0 48 48">
  <path fill-rule="evenodd" clip-rule="evenodd" d="M8 28a2 2 0 00-2 2v9.5a2 2 0 002 2h2a2 2 0 002-2v-.34c.97-.033 1.982-.06 2.412-.042 2.057.081 3.594.56 5.147 1.045 1.45.452 2.913.909 4.829 1.05.481.037.95.083 1.404.128 1.64.161 3.095.305 4.297-.127 1.534-.552 10.305-4.744 11.4-5.847 1.097-1.103.549-4.082-2.85-3.53-1.676.272-3.62 1.054-5.383 1.764-1.81.729-3.43 1.38-4.373 1.325-1.864-.11-6.797-.993-6.797-.993L27.75 34s.8.042 1.9-.73c1.1-.77 2.083-2.978.439-2.978-1.645 0-3.399-.551-3.399-.551l-7.016-1.545s-2.412-.441-3.398 0c-.628.28-2.795 1.053-4.289 1.577A2 2 0 0010 28H8z" fill="#333"/>
  <path d="M27 20.5c0 1.4-1.1 2.5-2.5 2.5S22 21.9 22 20.5s2.5-4.5 2.5-4.5 2.5 3.2 2.5 4.5z" fill="#333"/>
  <path fill-rule="evenodd" clip-rule="evenodd" d="M24.894 15.692L24.5 16l-.39-.314.396-.49.388.496zm-.4 1.134c-.228.305-.527.72-.826 1.174-.307.465-.606.963-.827 1.423-.229.477-.341.847-.341 1.077 0 1.124.876 2 2 2s2-.876 2-2c0-.202-.109-.556-.34-1.033-.222-.457-.522-.96-.83-1.432a27.196 27.196 0 00-.835-1.21zM24.5 16l-.39-.314-.002.003-.006.007-.022.028-.081.104a25.127 25.127 0 00-1.166 1.622 13.744 13.744 0 00-.893 1.54c-.24.498-.44 1.04-.44 1.51 0 1.676 1.324 3 3 3s3-1.324 3-3c0-.448-.204-.982-.44-1.47a15.24 15.24 0 00-.89-1.54 28.01 28.01 0 00-1.246-1.759l-.022-.028-.006-.008-.001-.002L24.5 16z" fill="#333"/>
  <path d="M39 17.5c0 2.5-2 4.5-4.5 4.5S30 20 30 17.5 34.5 9 34.5 9s4.5 6 4.5 8.5z" fill="#333"/>
  <path fill-rule="evenodd" clip-rule="evenodd" d="M34.9 8.7l-.4.3-.4-.3.4-.533.4.533zm-.4 1.15a51.025 51.025 0 00-1.825 2.726c-.557.898-1.108 1.863-1.518 2.75-.418.908-.657 1.666-.657 2.174 0 2.224 1.776 4 4 4s4-1.776 4-4c0-.508-.239-1.266-.657-2.173-.41-.888-.96-1.853-1.518-2.75A50.485 50.485 0 0034.5 9.848zm0-.85l-.4-.3-.004.005-.01.014-.038.052-.145.197a51.438 51.438 0 00-2.077 3.08c-.569.916-1.143 1.92-1.577 2.86-.425.921-.749 1.85-.749 2.592 0 2.776 2.224 5 5 5s5-2.224 5-5c0-.742-.324-1.671-.75-2.592-.433-.94-1.007-1.944-1.575-2.86a51.438 51.438 0 00-2.222-3.277l-.04-.052-.01-.014L34.9 8.7l-.4.3z" fill="#333"/>
</svg>
